<?xml version="1.0" encoding="UTF-8"?>
<svg id="Layer_9" xmlns="http://www.w3.org/2000/svg" version="1.1" viewBox="0 0 435 131.29">
  <!-- Generator: Adobe Illustrator 29.5.1, SVG Export Plug-In . SVG Version: 2.1.0 Build 141)  -->
  <defs>
    <style>
      .st0, .st1 {
        fill: none;
        stroke: #fff;
        stroke-miterlimit: 10;
      }

      .st1 {
        stroke-width: .5px;
      }

      .st2, .st3 {
        isolation: isolate;
      }

      .st3 {
        fill: #fff;
        font-family: ArialMT, Arial;
        font-size: 41px;
      }
    </style>
  </defs>
  <g class="st2">
    <text class="st3" transform="translate(113.46 79.93)"><tspan x="0" y="0">@Bouquetsbyinz</tspan></text>
  </g>
  <g>
    <g id="_x3C_Radial_Repeat_x3E_">
      <path class="st1" d="M56.36,94.17s-.32-7.25-.25-8.35c3.44,2.33,22.41,19.76.54,30.46-1.5-.62-23.93-10.5-.54-30.46"/>
    </g>
    <g id="_x3C_Radial_Repeat_x3E_1">
      <path class="st1" d="M29.89,80.21s6.11-3.9,7.1-4.39c-.3,4.14-5.91,29.29-26.12,15.7-.21-1.61-2.87-25.97,26.12-15.7"/>
    </g>
    <g id="_x3C_Radial_Repeat_x3E_2">
      <path class="st1" d="M28.74,50.3s6.44,3.34,7.36,3.96c-3.74,1.81-28.32,9.53-26.65-14.77,1.28-.99,21.05-15.47,26.65,14.77"/>
    </g>
    <g id="_x3C_Radial_Repeat_x3E_3">
      <path class="st1" d="M54.07,34.36s.32,7.25.25,8.35c-3.44-2.33-22.41-19.76-.54-30.46,1.5.62,23.93,10.5.54,30.46"/>
    </g>
    <g id="_x3C_Radial_Repeat_x3E_4">
      <path class="st1" d="M80.54,48.32s-6.11,3.9-7.1,4.39c.3-4.14,5.91-29.29,26.12-15.7.21,1.61,2.87,25.97-26.12,15.7"/>
    </g>
    <g id="_x3C_Radial_Repeat_x3E_5">
      <path class="st1" d="M81.69,78.23s-6.44-3.34-7.36-3.96c3.74-1.81,28.32-9.53,26.65,14.77-1.28.99-21.05,15.47-26.65-14.77"/>
    </g>
  </g>
  <g>
    <g id="_x3C_Radial_Repeat_x3E_6">
      <path class="st0" d="M56,85.88s-.37-16.73-.24-18.59c5.55,4,36.14,33.81.45,51.64-2.42-1.07-18.05-8.49-17.33-24.82"/>
    </g>
    <g id="_x3C_Radial_Repeat_x3E_7">
      <path class="st0" d="M36.89,75.76s14.3-8.68,15.98-9.51c-.69,6.81-11.21,48.21-44.5,26.21-.28-2.63-1.67-19.88,12.83-27.42"/>
    </g>
    <g id="_x3C_Radial_Repeat_x3E_8">
      <path class="st0" d="M36.1,54.14s14.67,8.05,16.22,9.09c-6.24,2.8-47.35,14.39-44.95-25.43,2.14-1.56,16.38-11.39,30.16-2.6"/>
    </g>
    <g id="_x3C_Radial_Repeat_x3E_9">
      <path class="st0" d="M54.43,42.65s.37,16.73.24,18.59c-5.55-4-36.14-33.81-.45-51.64,2.42,1.07,18.05,8.49,17.33,24.82"/>
    </g>
    <g id="_x3C_Radial_Repeat_x3E_10">
      <path class="st0" d="M73.54,52.78s-14.3,8.68-15.98,9.51c.69-6.81,11.21-48.21,44.5-26.21.28,2.63,1.67,19.88-12.83,27.42"/>
    </g>
    <g id="_x3C_Radial_Repeat_x3E_11">
      <path class="st0" d="M74.33,74.39s-14.67-8.05-16.22-9.09c6.24-2.8,47.35-14.39,44.95,25.43-2.14,1.56-16.38,11.39-30.16,2.6"/>
    </g>
  </g>
  <g>
    <g id="_x3C_Radial_Repeat_x3E_12">
      <g>
        <path class="st1" d="M57.99,94.95c-.25.02-.48-.13-.49-.36-.42-.85-2.36-.52-2.78-.49l-1.13-.19c-.29-.42-4.33,3.95-4.57,4.05-.31.31-1.34.56-1.33,1.08,0,.08,0,1.92-.05,1.94,0,.14-.29.82-.24.95l.45,3.25c0,.07,0,.15-.02.22l-.55,1.63c-.36.74,2.86,1.62,3.44,1.98,5,2.26,1.92,4.46,7.73.6.05-.08,2.4-2.55,2.27-2.59.09-.24.16-1.11.4-1.27.52-.46,2.37-2.09,2.64-2.38.36-.38-.21-.95.22-1.31.25-.3,1.25-.86.97-1.33-.6-1.26-2.83-5.81-3.45-5.94-.48-.1-2.36.05-3.54.16h.03Z"/>
        <path class="st1" d="M60.72,107.15s-3.63.95-3.5,1.39c.11.38-2.36.38-3.08.37-.94-.33-3.71-2.76-4.62-2.66-.61.03-1.77-.6-1.42-1.27.2-.32.46-.77.28-.79-.28-.04.27-3.2.17-3.53s.89-1.1.89-1.1"/>
        <path class="st1" d="M49.85,102.8c2.68,4.82,2.91,3.57,7.36,5.75"/>
        <path class="st1" d="M51.03,104.49s.45-3.49,1.2-3.71c.63-.27,1.42-1.2,1.33-1.8-.17-.43-.5-1.44.09-1.61l2.13-.63c.33-.06.52-.58.68-.8.55-1.28-2.06-.49-2.21-.19-.27.44-3.23,3.23-3.22,3.71s-1.39,3.05-1.17,3.34-.85-.59-.67-1.36c.18-.77-.3-1.47.26-1.87s-.46-1.54-.46-1.54"/>
        <path class="st1" d="M53.64,99.16s4.24-2.57,5.03-1.24-1.67.73-2.78,2.02c-2.01,2.35-2.46,3.95-.74,5.73.82.9-3.85-.43-3.62-.39"/>
        <path class="st1" d="M58.89,107.81c-.13-.54,2.75-3.62,2.25-4.26-.25-.4,2.04-1.32,1.5-1.76s.84-2.17-.57-3.31c-1.2-.97-3.77-1.96-4.52-2.24-.31-.18-1.24.37-1.55.43"/>
        <path class="st1" d="M54.04,103.72s2.76,1.58,4.04,1.33c1.2-.36,2.66-1.01,3.12-1.7.17-.63.59-2.57-.38-3.19-1.16-.74-2.15-2.25-2.15-2.25"/>
        <path class="st1" d="M56.15,99.88c-2.19,1.2.62,4.76,1.93,5.17.7.24,1.52-2.66,1.63-3.07.27-2.41-1.41-2.55-3.56-2.09h0Z"/>
      </g>
    </g>
    <g id="_x3C_Radial_Repeat_x3E_13">
      <g>
        <path class="st1" d="M30.03,82.01c-.15-.21-.12-.48.07-.6.52-.79-.73-2.31-.97-2.65l-.4-1.07c.22-.46-5.59-1.77-5.79-1.93-.42-.11-1.16-.88-1.59-.61-.07.04-1.67.95-1.71.93-.13.06-.85.16-.95.27l-2.59,2.02c-.06.04-.12.08-.2.09l-1.68.34c-.82.05.03,3.28,0,3.97.54,5.46-2.9,3.9,3.35,7,.09,0,3.41.8,3.38.67.26-.04,1.04-.41,1.3-.29.66.22,3,1.01,3.38,1.1.5.12.72-.66,1.24-.46.39.07,1.37.66,1.63.17.79-1.15,3.62-5.35,3.42-5.95-.16-.47-1.22-2.02-1.9-2.99h.01Z"/>
        <path class="st1" d="M20.83,90.48s-2.64-2.67-2.96-2.34c-.27.29-1.51-1.86-1.86-2.48-.18-.98.53-4.59,0-5.33-.33-.51-.36-1.83.38-1.87.38.02.9.01.83-.16-.11-.26,2.91-1.36,3.14-1.61s1.4.22,1.4.22"/>
        <path class="st1" d="M19.17,78.89c-2.83,4.73-1.64,4.3-1.29,9.25"/>
        <path class="st1" d="M18.29,80.75s3.25-1.35,3.81-.82c.55.41,1.75.63,2.23.25.29-.36,1-1.15,1.44-.73l1.61,1.53c.22.25.76.16,1.03.19,1.39-.17-.6-2.03-.94-2.01-.52-.02-4.41-1.18-4.82-.94s-3.34.32-3.48.66.09-1.03.84-1.26c.76-.23,1.12-.99,1.75-.72s1.11-1.17,1.11-1.17"/>
        <path class="st1" d="M24.21,80.35s4.34,2.38,3.59,3.74-1.47-1.08-3.14-1.4c-3.04-.57-4.65-.15-5.33,2.23-.37,1.16-1.56-3.55-1.47-3.33"/>
        <path class="st1" d="M19.34,89.22c.4-.38,4.51.57,4.82-.18.22-.42,2.16,1.11,2.28.42s2.3-.35,2.58-2.15c.24-1.52-.18-4.24-.32-5.04,0-.36-.94-.89-1.15-1.12"/>
        <path class="st1" d="M20.46,82.98s0,3.18.87,4.16c.91.86,2.2,1.8,3.03,1.85.63-.17,2.52-.77,2.57-1.92.06-1.37.87-2.98.87-2.98"/>
        <path class="st1" d="M24.84,82.88c-2.14-1.3-3.81,2.91-3.51,4.25.14.72,3.06-.02,3.48-.13,2.22-.97,1.5-2.5.03-4.13h0Z"/>
      </g>
    </g>
    <g id="_x3C_Radial_Repeat_x3E_14">
      <g>
        <path class="st1" d="M27.25,51.33c.11-.23.36-.35.56-.24.94.06,1.63-1.79,1.81-2.16l.72-.88c.51-.04-1.26-5.73-1.22-5.98-.11-.42.18-1.45-.27-1.69-.07-.04-1.66-.97-1.66-1.01-.12-.08-.56-.66-.71-.68l-3.04-1.23c-.07-.03-.13-.07-.18-.13l-1.13-1.29c-.46-.69-2.83,1.67-3.44,1.99-4.46,3.2-4.82-.56-4.39,6.4.04.08,1.01,3.35,1.11,3.26.17.2.88.69.9.98.14.68.63,3.1.74,3.47.15.5.93.29,1.02.85.14.37.12,1.52.67,1.5,1.39.11,6.44.45,6.86-.02.33-.37,1.14-2.07,1.63-3.14h.02Z"/>
        <path class="st1" d="M15.32,47.59s.99-3.62.55-3.73c-.38-.09.86-2.23,1.22-2.85.75-.65,4.24-1.83,4.61-2.67.28-.55,1.41-1.23,1.81-.6.17.34.44.78.55.64.17-.22,2.63,1.83,2.97,1.91s.51,1.32.51,1.32"/>
        <path class="st1" d="M24.53,40.36c-5.52-.09-4.55.73-8.66,3.5"/>
        <path class="st1" d="M22.47,40.53s2.8,2.14,2.62,2.89c-.08.68.33,1.83.9,2.06.45.07,1.5.29,1.35.88l-.52,2.16c-.11.32.24.74.35.99.84,1.11,1.46-1.54,1.27-1.82-.24-.46-1.18-4.41-1.6-4.65s-1.94-2.73-2.31-2.69.93-.44,1.51.1c.58.54,1.42.48,1.5,1.16s1.57.38,1.57.38"/>
        <path class="st1" d="M25.78,45.45s.11,4.95-1.44,4.98c-1.55.03.2-1.82-.36-3.42-1.03-2.92-2.19-4.11-4.6-3.51-1.19.26,2.3-3.12,2.14-2.94"/>
        <path class="st1" d="M15.67,45.68c.53.16,1.76,4.19,2.57,4.08.48-.02.12,2.43.77,2.18s1.46,1.82,3.15,1.16c1.44-.56,3.58-2.28,4.2-2.79.31-.18.3-1.26.4-1.56"/>
        <path class="st1" d="M21.63,43.52s-2.75,1.6-3.17,2.83c-.29,1.22-.46,2.81-.09,3.55.46.46,1.93,1.8,2.95,1.26,1.22-.64,3.02-.74,3.02-.74"/>
        <path class="st1" d="M23.9,47.27c.06-2.5-4.43-1.84-5.44-.91-.56.48,1.54,2.64,1.85,2.95,1.95,1.44,2.91.05,3.59-2.03h0Z"/>
      </g>
    </g>
    <g id="_x3C_Radial_Repeat_x3E_15">
      <g>
        <path class="st1" d="M52.44,33.58c.25-.02.48.13.49.36.42.85,2.36.52,2.78.49l1.13.19c.29.42,4.33-3.95,4.57-4.05.31-.31,1.34-.56,1.33-1.08,0-.08,0-1.92.05-1.94,0-.14.29-.82.24-.95l-.45-3.25c0-.07,0-.15.02-.22l.55-1.63c.36-.74-2.86-1.62-3.44-1.98-5-2.26-1.92-4.46-7.73-.6-.05.08-2.4,2.55-2.27,2.59-.09.24-.16,1.11-.4,1.27-.52.46-2.37,2.09-2.64,2.38-.36.38.21.95-.22,1.31-.25.3-1.25.86-.97,1.33.6,1.26,2.83,5.81,3.45,5.94.48.1,2.36-.05,3.54-.16h-.03Z"/>
        <path class="st1" d="M49.71,21.38s3.63-.95,3.5-1.39c-.11-.38,2.36-.38,3.08-.37.94.33,3.71,2.76,4.62,2.66.61-.03,1.77.6,1.42,1.27-.2.32-.46.77-.28.79.28.04-.27,3.2-.17,3.53s-.89,1.1-.89,1.1"/>
        <path class="st1" d="M60.58,25.73c-2.68-4.82-2.91-3.57-7.36-5.75"/>
        <path class="st1" d="M59.4,24.04s-.45,3.49-1.2,3.71c-.63.27-1.42,1.2-1.33,1.8.17.43.5,1.44-.09,1.61l-2.13.63c-.33.06-.52.58-.68.8-.55,1.28,2.06.49,2.21.19.27-.44,3.23-3.23,3.22-3.71s1.39-3.05,1.17-3.34.85.59.67,1.36.3,1.47-.26,1.87.46,1.54.46,1.54"/>
        <path class="st1" d="M56.79,29.37s-4.24,2.57-5.03,1.24,1.67-.73,2.78-2.02c2.01-2.35,2.46-3.95.74-5.73-.82-.9,3.85.43,3.62.39"/>
        <path class="st1" d="M51.54,20.72c.13.54-2.75,3.62-2.25,4.26.25.4-2.04,1.32-1.5,1.76s-.84,2.17.57,3.31c1.2.97,3.77,1.96,4.52,2.24.31.18,1.24-.37,1.55-.43"/>
        <path class="st1" d="M56.39,24.81s-2.76-1.58-4.04-1.33c-1.2.36-2.66,1.01-3.12,1.7-.17.63-.59,2.57.38,3.19,1.16.74,2.15,2.25,2.15,2.25"/>
        <path class="st1" d="M54.28,28.65c2.19-1.2-.62-4.76-1.93-5.17-.7-.24-1.52,2.66-1.63,3.07-.27,2.41,1.41,2.55,3.56,2.09h0Z"/>
      </g>
    </g>
    <g id="_x3C_Radial_Repeat_x3E_16">
      <g>
        <path class="st1" d="M80.4,46.52c.15.21.12.48-.07.6-.52.79.73,2.31.97,2.65l.4,1.07c-.22.46,5.59,1.77,5.79,1.93.42.11,1.16.88,1.59.61.07-.04,1.67-.95,1.71-.93.13-.06.85-.16.95-.27l2.59-2.02c.06-.04.12-.08.2-.09l1.68-.34c.82-.05-.03-3.28,0-3.97-.54-5.46,2.9-3.9-3.35-7-.09,0-3.41-.8-3.38-.67-.26.04-1.04.41-1.3.29-.66-.22-3-1.01-3.38-1.1-.5-.12-.72.66-1.24.46-.39-.07-1.37-.66-1.63-.17-.79,1.15-3.62,5.35-3.42,5.95.16.47,1.22,2.02,1.9,2.99h-.01Z"/>
        <path class="st1" d="M89.6,38.06s2.64,2.67,2.96,2.34c.27-.29,1.51,1.86,1.86,2.48.18.98-.53,4.59,0,5.33.33.51.36,1.83-.38,1.87-.38-.02-.9,0-.83.16.11.26-2.91,1.36-3.14,1.61s-1.4-.22-1.4-.22"/>
        <path class="st1" d="M91.27,49.64c2.83-4.73,1.64-4.3,1.29-9.25"/>
        <path class="st1" d="M92.14,47.78s-3.25,1.35-3.81.82c-.55-.41-1.75-.63-2.23-.25-.29.36-1,1.15-1.44.73l-1.61-1.53c-.22-.25-.76-.16-1.03-.19-1.39.17.6,2.03.94,2.01.52.02,4.41,1.18,4.82.94s3.34-.32,3.48-.66-.09,1.03-.84,1.26c-.76.23-1.12.99-1.75.72s-1.11,1.17-1.11,1.17"/>
        <path class="st1" d="M86.22,48.18s-4.34-2.38-3.59-3.74,1.47,1.08,3.14,1.4c3.04.57,4.65.15,5.33-2.23.37-1.16,1.56,3.55,1.47,3.33"/>
        <path class="st1" d="M91.09,39.31c-.4.38-4.51-.57-4.82.18-.22.42-2.16-1.11-2.28-.42s-2.3.35-2.58,2.15c-.24,1.52.18,4.24.32,5.04,0,.36.94.89,1.15,1.12"/>
        <path class="st1" d="M89.97,45.56s0-3.18-.87-4.16c-.91-.86-2.2-1.8-3.03-1.85-.63.17-2.52.77-2.57,1.92-.06,1.37-.87,2.98-.87,2.98"/>
        <path class="st1" d="M85.6,45.65c2.14,1.3,3.81-2.91,3.51-4.25-.14-.72-3.06.02-3.48.13-2.22.97-1.5,2.5-.03,4.13h0Z"/>
      </g>
    </g>
    <g id="_x3C_Radial_Repeat_x3E_17">
      <g>
        <path class="st1" d="M83.18,77.21c-.11.23-.36.35-.56.24-.94-.06-1.63,1.79-1.81,2.16l-.72.88c-.51.04,1.26,5.73,1.22,5.98.11.42-.18,1.45.27,1.69.07.04,1.66.97,1.66,1.01.12.08.56.66.71.68l3.04,1.23c.07.03.13.07.18.13l1.13,1.29c.46.69,2.83-1.67,3.44-1.99,4.46-3.2,4.82.56,4.39-6.4-.04-.08-1.01-3.35-1.11-3.26-.17-.2-.88-.69-.9-.98-.14-.68-.63-3.1-.74-3.47-.15-.5-.93-.29-1.02-.85-.14-.37-.12-1.52-.67-1.5-1.39-.11-6.44-.45-6.86.02-.33.37-1.14,2.07-1.63,3.14h-.02Z"/>
        <path class="st1" d="M95.11,80.94s-.99,3.62-.55,3.73c.38.09-.86,2.23-1.22,2.85-.75.65-4.24,1.83-4.61,2.67-.28.55-1.41,1.23-1.81.6-.17-.34-.44-.78-.55-.64-.17.22-2.63-1.83-2.97-1.91s-.51-1.32-.51-1.32"/>
        <path class="st1" d="M85.9,88.17c5.52.09,4.55-.73,8.66-3.5"/>
        <path class="st1" d="M87.96,88s-2.8-2.14-2.62-2.89c.08-.68-.33-1.83-.9-2.06-.45-.07-1.5-.29-1.35-.88l.52-2.16c.11-.32-.24-.74-.35-.99-.84-1.11-1.46,1.54-1.27,1.82.24.46,1.18,4.41,1.6,4.65s1.94,2.73,2.31,2.69-.93.44-1.51-.1-1.42-.48-1.5-1.16-1.57-.38-1.57-.38"/>
        <path class="st1" d="M84.65,83.08s-.11-4.95,1.44-4.98c1.55-.03-.2,1.82.36,3.42,1.03,2.92,2.19,4.11,4.6,3.51,1.19-.26-2.3,3.12-2.14,2.94"/>
        <path class="st1" d="M94.76,82.85c-.53-.16-1.76-4.19-2.57-4.08-.48.02-.12-2.43-.77-2.18s-1.46-1.82-3.15-1.16c-1.44.56-3.58,2.28-4.2,2.79-.31.18-.3,1.26-.4,1.56"/>
        <path class="st1" d="M88.8,85.01s2.75-1.6,3.17-2.83c.29-1.22.46-2.81.09-3.55-.46-.46-1.93-1.8-2.95-1.26-1.22.64-3.02.74-3.02.74"/>
        <path class="st1" d="M86.53,81.27c-.06,2.5,4.43,1.84,5.44.91.56-.48-1.54-2.64-1.85-2.95-1.95-1.44-2.91-.05-3.59,2.03h0Z"/>
      </g>
    </g>
  </g>
</svg>